RobotoSerifDisplay-HairlineWidth1780 00m.ufo
<glyph name="numbersign" format="2">
  <advance width="787"/>
  <unicode hex="0023"/>
  <outline>
    <contour>
      <point x="135" y="0" type="line"/>
      <point x="165" y="0" type="line"/>
      <point x="386" y="750" type="line"/>
      <point x="356" y="750" type="line"/>
    </contour>
    <contour>
      <point x="53" y="262" type="line"/>
      <point x="698" y="262" type="line"/>
      <point x="698" y="282" type="line"/>
      <point x="53" y="282" type="line"/>
    </contour>
    <contour>
      <point x="113" y="487" type="line"/>
      <point x="758" y="487" type="line"/>
      <point x="758" y="507" type="line"/>
      <point x="113" y="507" type="line"/>
    </contour>
    <contour>
      <point x="400" y="0" type="line"/>
      <point x="430" y="0" type="line"/>
      <point x="652" y="750" type="line"/>
      <point x="622" y="750" type="line"/>
    </contour>
  </outline>
</glyph>
<glyph name="percent" format="2">
  <advance width="896"/>
  <unicode hex="0025"/>
  <outline>
    <contour>
      <point x="234" y="720" type="curve" smooth="yes"/>
      <point x="133" y="720"/>
      <point x="60" y="648"/>
      <point x="60" y="551" type="curve" smooth="yes"/>
      <point x="60" y="453"/>
      <point x="133" y="382"/>
      <point x="234" y="382" type="curve" smooth="yes"/>
      <point x="336" y="382"/>
      <point x="409" y="454"/>
      <point x="409" y="551" type="curve" smooth="yes"/>
      <point x="409" y="649"/>
      <point x="336" y="720"/>
    </contour>
    <contour>
      <point x="234" y="397" type="curve" smooth="yes"/>
      <point x="147" y="397"/>
      <point x="106" y="460"/>
      <point x="106" y="551" type="curve" smooth="yes"/>
      <point x="106" y="642"/>
      <point x="147" y="705"/>
      <point x="234" y="705" type="curve" smooth="yes"/>
      <point x="323" y="705"/>
      <point x="363" y="642"/>
      <point x="363" y="551" type="curve" smooth="yes"/>
      <point x="363" y="460"/>
      <point x="323" y="397"/>
    </contour>
    <contour>
      <point x="654" y="328" type="curve" smooth="yes"/>
      <point x="554" y="328"/>
      <point x="480" y="256"/>
      <point x="480" y="159" type="curve" smooth="yes"/>
      <point x="480" y="61"/>
      <point x="554" y="-10"/>
      <point x="654" y="-10" type="curve" smooth="yes"/>
      <point x="756" y="-10"/>
      <point x="829" y="62"/>
      <point x="829" y="159" type="curve" smooth="yes"/>
      <point x="829" y="257"/>
      <point x="756" y="328"/>
    </contour>
    <contour>
      <point x="654" y="5" type="curve" smooth="yes"/>
      <point x="567" y="5"/>
      <point x="526" y="68"/>
      <point x="526" y="159" type="curve" smooth="yes"/>
      <point x="526" y="250"/>
      <point x="567" y="313"/>
      <point x="654" y="313" type="curve" smooth="yes"/>
      <point x="743" y="313"/>
      <point x="783" y="250"/>
      <point x="783" y="159" type="curve" smooth="yes"/>
      <point x="783" y="68"/>
      <point x="743" y="5"/>
    </contour>
    <component base="fraction" xOffset="255"/>
  </outline>
</glyph>
<glyph name="period" format="2">
  <advance width="189"/>
  <unicode hex="002E"/>
  <outline>
    <contour>
      <point x="94" y="-8" type="curve" smooth="yes"/>
      <point x="115" y="-8"/>
      <point x="129" y="4"/>
      <point x="129" y="23" type="curve" smooth="yes"/>
      <point x="129" y="42"/>
      <point x="115" y="54"/>
      <point x="94" y="54" type="curve" smooth="yes"/>
      <point x="74" y="54"/>
      <point x="60" y="42"/>
      <point x="60" y="23" type="curve" smooth="yes"/>
      <point x="60" y="4"/>
      <point x="74" y="-8"/>
    </contour>
  </outline>
</glyph>
<glyph name="six" format="2">
  <advance width="693"/>
  <unicode hex="0036"/>
  <outline>
    <contour>
      <point x="548" y="724" type="line"/>
      <point x="269" y="686"/>
      <point x="95" y="531"/>
      <point x="95" y="287" type="curve" smooth="yes"/>
      <point x="95" y="93"/>
      <point x="205" y="6"/>
      <point x="356" y="6" type="curve" smooth="yes"/>
      <point x="510" y="6"/>
      <point x="605" y="100"/>
      <point x="605" y="235" type="curve" smooth="yes"/>
      <point x="605" y="375"/>
      <point x="517" y="453"/>
      <point x="372" y="453" type="curve" smooth="yes"/>
      <point x="248" y="453"/>
      <point x="148" y="398"/>
      <point x="89" y="281" type="curve"/>
      <point x="89" y="281"/>
      <point x="77" y="288"/>
      <point x="78" y="288" type="curve"/>
      <point x="132" y="401"/>
      <point x="233" y="469"/>
      <point x="377" y="469" type="curve" smooth="yes"/>
      <point x="541" y="469"/>
      <point x="643" y="383"/>
      <point x="643" y="235" type="curve" smooth="yes"/>
      <point x="643" y="86"/>
      <point x="523" y="-10"/>
      <point x="356" y="-10" type="curve" smooth="yes"/>
      <point x="187" y="-10"/>
      <point x="55" y="92"/>
      <point x="55" y="287" type="curve" smooth="yes"/>
      <point x="55" y="527"/>
      <point x="253" y="704"/>
      <point x="545" y="740" type="curve"/>
    </contour>
  </outline>
</glyph>
<glyph name="W" format="2">
  <advance width="1166"/>
  <unicode hex="0057"/>
  <guideline x="122" y="687" angle="289.9350280799849" identifier="QG28lN4ThI"/>
  <guideline x="608" y="710" angle="290.3006844068051" identifier="Tdys0VH7uY"/>
  <guideline x="580" y="710" angle="71.1524874379257" identifier="BReVwJih5b"/>
  <guideline x="1059" y="676" angle="71.72145419036124" identifier="CyxRUAQz9S"/>
  <guideline x="882" y="50" angle="0" identifier="5wFnbAVqsa"/>
  <outline>
    <contour>
      <point x="5" y="710" type="line"/>
      <point x="5" y="697" type="line"/>
      <point x="11" y="697" type="line" smooth="yes"/>
      <point x="54" y="697"/>
      <point x="82" y="695"/>
      <point x="90" y="670" type="curve" smooth="yes"/>
      <point x="333" y="0" type="line"/>
      <point x="361" y="0" type="line"/>
      <point x="577" y="665" type="line"/>
      <point x="574" y="665" type="line"/>
      <point x="805" y="0" type="line"/>
      <point x="833" y="0" type="line"/>
      <point x="1072" y="660" type="line" smooth="yes"/>
      <point x="1082" y="689"/>
      <point x="1120" y="697"/>
      <point x="1155" y="697" type="curve" smooth="yes"/>
      <point x="1161" y="697" type="line"/>
      <point x="1161" y="710" type="line"/>
      <point x="950" y="710" type="line"/>
      <point x="950" y="697" type="line"/>
      <point x="964" y="697" type="line" smooth="yes"/>
      <point x="1003" y="697"/>
      <point x="1055" y="688"/>
      <point x="1055" y="676" type="curve"/>
      <point x="822" y="34" type="line"/>
      <point x="832" y="34" type="line"/>
      <point x="597" y="710" type="line"/>
      <point x="569" y="710" type="line"/>
      <point x="345" y="22" type="line"/>
      <point x="365" y="20" type="line"/>
      <point x="123" y="687" type="line"/>
      <point x="123" y="694"/>
      <point x="180" y="697"/>
      <point x="223" y="697" type="curve" smooth="yes"/>
      <point x="244" y="697" type="line"/>
      <point x="244" y="710" type="line"/>
    </contour>
  </outline>
</glyph>
<glyph name="i" format="2">
  <advance width="288"/>
  <unicode hex="0069"/>
  <outline>
    <contour>
      <point x="130" y="658" type="curve" smooth="yes"/>
      <point x="148" y="658"/>
      <point x="161" y="670"/>
      <point x="161" y="689" type="curve" smooth="yes"/>
      <point x="161" y="709"/>
      <point x="148" y="721"/>
      <point x="130" y="721" type="curve" smooth="yes"/>
      <point x="110" y="721"/>
      <point x="98" y="709"/>
      <point x="98" y="689" type="curve" smooth="yes"/>
      <point x="98" y="670"/>
      <point x="110" y="658"/>
    </contour>
    <contour>
      <point x="163" y="518" type="line"/>
      <point x="26" y="518" type="line"/>
      <point x="26" y="505" type="line"/>
      <point x="63" y="503.0" type="line" smooth="yes"/>
      <point x="116" y="500"/>
      <point x="125.0" y="489"/>
      <point x="125.0" y="461" type="curve" smooth="yes"/>
      <point x="125.0" y="50" type="line" smooth="yes"/>
      <point x="125" y="19"/>
      <point x="90" y="13.0"/>
      <point x="43" y="13.0" type="curve" smooth="yes"/>
      <point x="26" y="13" type="line"/>
      <point x="26" y="0" type="line"/>
      <point x="262" y="0" type="line"/>
      <point x="262" y="13" type="line"/>
      <point x="245" y="13.0" type="line" smooth="yes"/>
      <point x="198" y="13.0"/>
      <point x="163.0" y="19"/>
      <point x="163.0" y="50" type="curve" smooth="yes"/>
    </contour>
  </outline>
</glyph>
<glyph name="u" format="2">
  <advance width="677"/>
  <unicode hex="0075"/>
  <outline>
    <contour>
      <point x="143" y="518" type="line"/>
      <point x="6" y="518" type="line"/>
      <point x="6" y="505" type="line"/>
      <point x="21" y="505" type="line" smooth="yes"/>
      <point x="68" y="505"/>
      <point x="105" y="499"/>
      <point x="105" y="468" type="curve" smooth="yes"/>
      <point x="105" y="141" type="line" smooth="yes"/>
      <point x="105" y="35"/>
      <point x="174" y="-10"/>
      <point x="279" y="-10" type="curve" smooth="yes"/>
      <point x="387" y="-10"/>
      <point x="460" y="37"/>
      <point x="527" y="111" type="curve"/>
      <point x="527" y="134" type="line"/>
      <point x="460" y="56"/>
      <point x="385" y="9"/>
      <point x="282" y="9" type="curve" smooth="yes"/>
      <point x="183" y="9"/>
      <point x="143" y="52"/>
      <point x="143" y="152" type="curve" smooth="yes"/>
    </contour>
    <contour>
      <point x="557" y="518" type="line"/>
      <point x="410" y="518" type="line"/>
      <point x="410" y="505" type="line"/>
      <point x="424" y="505" type="line"/>
      <point x="481" y="505"/>
      <point x="518" y="499"/>
      <point x="518" y="468" type="curve" smooth="yes"/>
      <point x="518" y="109" type="line"/>
      <point x="520" y="109" type="line"/>
      <point x="520" y="0" type="line"/>
      <point x="655" y="0" type="line"/>
      <point x="655" y="13" type="line"/>
      <point x="637" y="13" type="line" smooth="yes"/>
      <point x="570" y="13"/>
      <point x="557" y="24"/>
      <point x="557" y="52" type="curve" smooth="yes"/>
    </contour>
  </outline>
</glyph>
<glyph name="Eth" format="2">
  <advance width="897"/>
  <unicode hex="00D0"/>
  <outline>
    <contour>
      <point x="53" y="370" type="line"/>
      <point x="53" y="340" type="line"/>
      <point x="554" y="340" type="line"/>
      <point x="554" y="370" type="line"/>
    </contour>
    <component base="D" xOffset="62"/>
  </outline>
</glyph>
<glyph name="divide" format="2">
  <advance width="699"/>
  <unicode hex="00F7"/>
  <outline>
    <contour>
      <point x="402" y="175" type="curve" smooth="yes"/>
      <point x="402" y="201"/>
      <point x="381" y="217"/>
      <point x="349" y="217" type="curve" smooth="yes"/>
      <point x="318" y="217"/>
      <point x="297" y="201"/>
      <point x="297" y="175" type="curve" smooth="yes"/>
      <point x="297" y="149"/>
      <point x="318" y="133"/>
      <point x="349" y="133" type="curve" smooth="yes"/>
      <point x="381" y="133"/>
      <point x="402" y="149"/>
    </contour>
    <contour>
      <point x="402" y="509" type="curve" smooth="yes"/>
      <point x="402" y="535"/>
      <point x="381" y="551"/>
      <point x="349" y="551" type="curve" smooth="yes"/>
      <point x="318" y="551"/>
      <point x="297" y="535"/>
      <point x="297" y="509" type="curve" smooth="yes"/>
      <point x="297" y="483"/>
      <point x="318" y="467"/>
      <point x="349" y="467" type="curve" smooth="yes"/>
      <point x="381" y="467"/>
      <point x="402" y="483"/>
    </contour>
    <component base="minus" xOffset="52"/>
  </outline>
</glyph>
<glyph name="eogonek" format="2">
  <advance width="631"/>
  <unicode hex="0119"/>
  <outline>
    <contour>
      <point x="376" y="-233" type="curve" smooth="yes"/>
      <point x="429" y="-233"/>
      <point x="473" y="-211"/>
      <point x="508" y="-180" type="curve"/>
      <point x="483" y="-160" type="line"/>
      <point x="453" y="-183"/>
      <point x="424" y="-203"/>
      <point x="379" y="-203" type="curve" smooth="yes"/>
      <point x="336" y="-203"/>
      <point x="298" y="-181"/>
      <point x="298" y="-140" type="curve" smooth="yes"/>
      <point x="298" y="-70"/>
      <point x="416" y="-24"/>
      <point x="500" y="27" type="curve" smooth="yes"/>
      <point x="539" y="49"/>
      <point x="560" y="73"/>
      <point x="578" y="100" type="curve"/>
      <point x="549" y="123" type="line"/>
      <point x="513" y="69"/>
      <point x="451" y="18"/>
      <point x="336" y="18" type="curve" smooth="yes"/>
      <point x="199" y="18"/>
      <point x="92" y="102"/>
      <point x="92" y="249" type="curve" smooth="yes"/>
      <point x="92" y="397"/>
      <point x="192" y="488"/>
      <point x="326" y="488" type="curve" smooth="yes"/>
      <point x="466" y="488"/>
      <point x="530" y="414"/>
      <point x="537" y="265" type="curve"/>
      <point x="555" y="281" type="line"/>
      <point x="69" y="281" type="line"/>
      <point x="71" y="251" type="line"/>
      <point x="579" y="251" type="line"/>
      <point x="577" y="423"/>
      <point x="495" y="518"/>
      <point x="326" y="518" type="curve" smooth="yes"/>
      <point x="168" y="518"/>
      <point x="50" y="409"/>
      <point x="50" y="251" type="curve" smooth="yes"/>
      <point x="50" y="90"/>
      <point x="176" y="-12"/>
      <point x="338" y="-12" type="curve" smooth="yes"/>
      <point x="367" y="-12"/>
      <point x="397" y="-8"/>
      <point x="421" y="-1" type="curve"/>
      <point x="435" y="18" type="line"/>
      <point x="349" y="-25"/>
      <point x="259" y="-69"/>
      <point x="259" y="-140" type="curve" smooth="yes"/>
      <point x="259" y="-198"/>
      <point x="313" y="-233"/>
    </contour>
  </outline>
</glyph>
<glyph name="dotlessi" format="2">
  <advance width="334"/>
  <unicode hex="0131"/>
  <anchor x="162" y="526.0" name="top"/>
  <outline>
    <contour>
      <point x="185" y="508" type="line"/>
      <point x="38" y="508" type="line"/>
      <point x="38" y="483" type="line"/>
      <point x="51" y="481" type="line" smooth="yes"/>
      <point x="115" y="471"/>
      <point x="147" y="465"/>
      <point x="147" y="436" type="curve" smooth="yes"/>
      <point x="147" y="63" type="line" smooth="yes"/>
      <point x="147" y="34"/>
      <point x="103" y="27"/>
      <point x="41" y="27" type="curve" smooth="yes"/>
      <point x="38" y="27" type="line"/>
      <point x="38" y="0" type="line"/>
      <point x="293" y="0" type="line"/>
      <point x="293" y="27" type="line"/>
      <point x="290" y="27" type="line" smooth="yes"/>
      <point x="229" y="27"/>
      <point x="185" y="34"/>
      <point x="185" y="63" type="curve" smooth="yes"/>
    </contour>
  </outline>
</glyph>
<glyph name="kgreenlandic" format="2">
  <advance width="727"/>
  <unicode hex="0138"/>
  <outline>
    <contour>
      <point x="692" y="0" type="line"/>
      <point x="692" y="30" type="line"/>
      <point x="689" y="30" type="line"/>
      <point x="641" y="30"/>
      <point x="607" y="37"/>
      <point x="565" y="68" type="curve" smooth="yes"/>
      <point x="284" y="291" type="line"/>
      <point x="288" y="273" type="line"/>
      <point x="516" y="429" type="line" smooth="yes"/>
      <point x="563" y="462"/>
      <point x="600" y="478"/>
      <point x="660" y="478" type="curve"/>
      <point x="663" y="478" type="line"/>
      <point x="663" y="508" type="line"/>
      <point x="384" y="508" type="line"/>
      <point x="384" y="478" type="line"/>
      <point x="386" y="478" type="line"/>
      <point x="428" y="478"/>
      <point x="498" y="475"/>
      <point x="498" y="460" type="curve"/>
      <point x="243" y="281" type="line"/>
      <point x="243" y="276" type="line"/>
      <point x="550" y="40" type="line"/>
      <point x="550" y="33"/>
      <point x="493" y="30"/>
      <point x="450" y="30" type="curve"/>
      <point x="441" y="30" type="line"/>
      <point x="441" y="0" type="line"/>
    </contour>
    <contour>
      <point x="40" y="0" type="line"/>
      <point x="282" y="0" type="line"/>
      <point x="282" y="27" type="line"/>
      <point x="278" y="27" type="line" smooth="yes"/>
      <point x="246" y="27"/>
      <point x="186" y="30"/>
      <point x="186" y="37" type="curve" smooth="yes"/>
      <point x="186" y="508" type="line"/>
      <point x="40" y="508" type="line"/>
      <point x="40" y="483" type="line"/>
      <point x="52" y="481" type="line" smooth="yes"/>
      <point x="117" y="471"/>
      <point x="148" y="465"/>
      <point x="148" y="436" type="curve" smooth="yes"/>
      <point x="148" y="63" type="line" smooth="yes"/>
      <point x="148" y="34"/>
      <point x="104" y="27"/>
      <point x="42" y="27" type="curve"/>
      <point x="40" y="27" type="line"/>
    </contour>
  </outline>
</glyph>
<glyph name="Tbar" format="2">
  <advance width="792"/>
  <unicode hex="0166"/>
  <outline>
    <contour>
      <point x="149" y="370" type="line"/>
      <point x="149" y="340" type="line"/>
      <point x="644" y="340" type="line"/>
      <point x="644" y="370" type="line"/>
    </contour>
    <component base="T" xOffset="73"/>
  </outline>
</glyph>
<glyph name="ohorn" format="2">
  <advance width="707"/>
  <unicode hex="01A1"/>
  <anchor x="343" y="538.0" name="top"/>
  <outline>
    <contour>
      <point x="367" y="494" type="curve"/>
      <point x="619" y="484"/>
      <point x="668" y="558"/>
      <point x="679" y="685" type="curve"/>
      <point x="638" y="685" type="line"/>
      <point x="625" y="555"/>
      <point x="575" y="518"/>
      <point x="348" y="518" type="curve"/>
      <point x="355" y="513"/>
      <point x="359" y="498"/>
    </contour>
    <contour>
      <point x="344" y="-12" type="curve"/>
      <point x="515" y="-12"/>
      <point x="638" y="95"/>
      <point x="638" y="253" type="curve" smooth="yes"/>
      <point x="638" y="377"/>
      <point x="559" y="472"/>
      <point x="443" y="502" type="curve"/>
      <point x="413" y="514"/>
      <point x="381" y="518"/>
      <point x="344" y="518" type="curve" smooth="yes"/>
      <point x="173" y="518"/>
      <point x="50" y="410"/>
      <point x="50" y="253" type="curve" smooth="yes"/>
      <point x="50" y="95"/>
      <point x="173" y="-12"/>
    </contour>
    <contour>
      <point x="344" y="18" type="curve"/>
      <point x="191" y="18"/>
      <point x="92" y="110"/>
      <point x="92" y="253" type="curve" smooth="yes"/>
      <point x="92" y="393"/>
      <point x="191" y="488"/>
      <point x="344" y="488" type="curve" smooth="yes"/>
      <point x="498" y="488"/>
      <point x="597" y="393"/>
      <point x="597" y="253" type="curve" smooth="yes"/>
      <point x="597" y="109"/>
      <point x="498" y="18"/>
    </contour>
  </outline>
</glyph>
<glyph name="quoteright" format="2">
  <advance width="195"/>
  <unicode hex="2019"/>
  <outline>
    <contour>
      <point x="79" y="579" type="line"/>
      <point x="114" y="605"/>
      <point x="137" y="640"/>
      <point x="137.0" y="677" type="curve" smooth="yes"/>
      <point x="137.0" y="708.0"/>
      <point x="121" y="720"/>
      <point x="101" y="720.0" type="curve" smooth="yes"/>
      <point x="81" y="720"/>
      <point x="69.0" y="707.0"/>
      <point x="69" y="690" type="curve" smooth="yes"/>
      <point x="69" y="673"/>
      <point x="81" y="660"/>
      <point x="101" y="660" type="curve"/>
      <point x="117" y="660"/>
      <point x="127" y="667"/>
      <point x="130" y="679" type="curve"/>
      <point x="121" y="674" type="line"/>
      <point x="121" y="650"/>
      <point x="100" y="620"/>
      <point x="62" y="596" type="curve"/>
    </contour>
  </outline>
</glyph>
<glyph name="servicemark" format="2">
  <advance width="1025"/>
  <unicode hex="2120"/>
  <outline>
    <contour>
      <point x="471" y="395" type="line"/>
      <point x="609" y="395" type="line"/>
      <point x="609" y="419" type="line"/>
      <point x="604" y="419" type="line" smooth="yes"/>
      <point x="590" y="419"/>
      <point x="564" y="422"/>
      <point x="564" y="424" type="curve" smooth="yes"/>
      <point x="564" y="702" type="line"/>
      <point x="561" y="701" type="line"/>
      <point x="697" y="394" type="line"/>
      <point x="724" y="394" type="line"/>
      <point x="864" y="701" type="line"/>
      <point x="862" y="701" type="line"/>
      <point x="862" y="424" type="line" smooth="yes"/>
      <point x="862" y="422"/>
      <point x="838" y="419"/>
      <point x="822" y="419" type="curve" smooth="yes"/>
      <point x="815" y="419" type="line"/>
      <point x="815" y="395" type="line"/>
      <point x="956" y="395" type="line"/>
      <point x="956" y="419" type="line"/>
      <point x="947" y="419" type="line" smooth="yes"/>
      <point x="919" y="419"/>
      <point x="900" y="423"/>
      <point x="900" y="436" type="curve" smooth="yes"/>
      <point x="900" y="670" type="line" smooth="yes"/>
      <point x="900" y="684"/>
      <point x="919" y="686"/>
      <point x="947" y="686" type="curve" smooth="yes"/>
      <point x="956" y="686" type="line"/>
      <point x="956" y="710" type="line"/>
      <point x="829" y="710" type="line"/>
      <point x="708" y="435" type="line"/>
      <point x="715" y="434" type="line"/>
      <point x="601" y="710" type="line"/>
      <point x="471" y="710" type="line"/>
      <point x="471" y="686" type="line"/>
      <point x="478" y="686" type="line" smooth="yes"/>
      <point x="505" y="686"/>
      <point x="527" y="684"/>
      <point x="527" y="670" type="curve" smooth="yes"/>
      <point x="527" y="436" type="line" smooth="yes"/>
      <point x="527" y="423"/>
      <point x="505" y="419"/>
      <point x="478" y="419" type="curve"/>
      <point x="471" y="419" type="line"/>
    </contour>
    <contour>
      <point x="262" y="413" type="curve" smooth="yes"/>
      <point x="195" y="413"/>
      <point x="146" y="449"/>
      <point x="124" y="496" type="curve"/>
      <point x="79" y="496" type="line"/>
      <point x="79" y="391" type="line"/>
      <point x="111" y="391" type="line"/>
      <point x="120" y="473" type="line"/>
      <point x="100" y="480"/>
      <point x="123" y="452"/>
      <point x="92" y="487" type="curve"/>
      <point x="127" y="417"/>
      <point x="190" y="386"/>
      <point x="261" y="386" type="curve" smooth="yes"/>
      <point x="325" y="386"/>
      <point x="392" y="415"/>
      <point x="392" y="482" type="curve" smooth="yes"/>
      <point x="392" y="528"/>
      <point x="343" y="556"/>
      <point x="262" y="573" type="curve" smooth="yes"/>
      <point x="199" y="586"/>
      <point x="141" y="597"/>
      <point x="141" y="645" type="curve" smooth="yes"/>
      <point x="141" y="674"/>
      <point x="172" y="696"/>
      <point x="219" y="696" type="curve" smooth="yes"/>
      <point x="277" y="696"/>
      <point x="308" y="668"/>
      <point x="329" y="627" type="curve"/>
      <point x="370" y="627" type="line"/>
      <point x="370" y="716" type="line"/>
      <point x="341" y="716" type="line"/>
      <point x="332" y="645" type="line"/>
      <point x="346" y="638"/>
      <point x="345" y="638"/>
      <point x="357" y="639" type="curve"/>
      <point x="328" y="695"/>
      <point x="292" y="720"/>
      <point x="222" y="720" type="curve" smooth="yes"/>
      <point x="151" y="720"/>
      <point x="102" y="689"/>
      <point x="102" y="639" type="curve" smooth="yes"/>
      <point x="102" y="578"/>
      <point x="167" y="559"/>
      <point x="232" y="545" type="curve" smooth="yes"/>
      <point x="319" y="527"/>
      <point x="352" y="513"/>
      <point x="352" y="474" type="curve" smooth="yes"/>
      <point x="352" y="435"/>
      <point x="308" y="413"/>
    </contour>
  </outline>
</glyph>
<glyph name="blacksquare" format="2">
  <advance width="735"/>
  <outline>
    <contour>
      <point x="101" y="104" type="line"/>
      <point x="633" y="104" type="line"/>
      <point x="633" y="522" type="line"/>
      <point x="101" y="522" type="line"/>
    </contour>
  </outline>
</glyph>
<glyph name="breve_acute.uc" format="2">
  <advance width="636"/>
  <anchor x="314" y="744.0" name="_top"/>
  <outline>
    <contour>
      <point x="408" y="1018" type="curve" smooth="yes"/>
      <point x="291" y="930" type="line"/>
      <point x="291" y="916" type="line"/>
      <point x="308" y="916" type="line"/>
      <point x="447" y="988" type="line" smooth="yes"/>
      <point x="481" y="1007"/>
      <point x="499" y="1018"/>
      <point x="499" y="1034" type="curve" smooth="yes"/>
      <point x="499" y="1047"/>
      <point x="488" y="1056"/>
      <point x="472" y="1056" type="curve" smooth="yes"/>
      <point x="449" y="1056"/>
      <point x="438" y="1042"/>
    </contour>
    <component base="breve.uc" xOffset="66"/>
  </outline>
</glyph>
<glyph name="circumflex_acute.uc" format="2">
  <advance width="635"/>
  <anchor x="305" y="749.0" name="_top"/>
  <outline>
    <contour>
      <point x="523" y="924" type="curve" smooth="yes"/>
      <point x="468" y="848" type="line"/>
      <point x="468" y="834" type="line"/>
      <point x="485" y="834" type="line"/>
      <point x="570" y="904" type="line" smooth="yes"/>
      <point x="592" y="925"/>
      <point x="605" y="937"/>
      <point x="605" y="952" type="curve" smooth="yes"/>
      <point x="605" y="965"/>
      <point x="593" y="974"/>
      <point x="578" y="974" type="curve" smooth="yes"/>
      <point x="558" y="974"/>
      <point x="550" y="959"/>
    </contour>
    <component base="circumflex.uc" xOffset="75"/>
  </outline>
</glyph>
<glyph name="circumflex_tilde.uc" format="2">
  <advance width="622"/>
  <anchor x="298" y="694.0" name="_top"/>
  <outline>
    <contour>
      <point x="344" y="859" type="line"/>
      <point x="484" y="759" type="line"/>
      <point x="484" y="749" type="line"/>
      <point x="457" y="749" type="line"/>
      <point x="263" y="840" type="line"/>
      <point x="330" y="840" type="line"/>
      <point x="145" y="749" type="line"/>
      <point x="122" y="749" type="line"/>
      <point x="122" y="759" type="line"/>
      <point x="262" y="859" type="line"/>
    </contour>
    <contour>
      <point x="391" y="892" type="curve" smooth="yes"/>
      <point x="449" y="892"/>
      <point x="477" y="925"/>
      <point x="502" y="984" type="curve"/>
      <point x="465" y="993" type="line"/>
      <point x="446" y="950"/>
      <point x="429" y="925"/>
      <point x="393" y="925" type="curve" smooth="yes"/>
      <point x="332" y="925"/>
      <point x="303" y="996"/>
      <point x="211" y="996" type="curve" smooth="yes"/>
      <point x="154" y="996"/>
      <point x="118" y="964"/>
      <point x="103" y="902" type="curve"/>
      <point x="140" y="892" type="line"/>
      <point x="153" y="938"/>
      <point x="167" y="963"/>
      <point x="209" y="963" type="curve" smooth="yes"/>
      <point x="268" y="963"/>
      <point x="291" y="892"/>
    </contour>
  </outline>
</glyph>
<glyph name="colonsign" format="2">
  <advance width="699"/>
  <outline>
    <contour>
      <point x="404" y="700" type="curve" smooth="yes"/>
      <point x="195" y="700"/>
      <point x="39" y="570"/>
      <point x="39" y="355" type="curve" smooth="yes"/>
      <point x="39" y="150"/>
      <point x="184" y="10"/>
      <point x="387" y="10" type="curve" smooth="yes"/>
      <point x="548" y="10"/>
      <point x="645" y="98"/>
      <point x="682" y="219" type="curve"/>
      <point x="644" y="235" type="line"/>
      <point x="615" y="129"/>
      <point x="535" y="40"/>
      <point x="385" y="40" type="curve" smooth="yes"/>
      <point x="202" y="40"/>
      <point x="82" y="165"/>
      <point x="82" y="355" type="curve" smooth="yes"/>
      <point x="82" y="558"/>
      <point x="218" y="670"/>
      <point x="404" y="670" type="curve" smooth="yes"/>
      <point x="537" y="670"/>
      <point x="616" y="628"/>
      <point x="649" y="587" type="curve"/>
      <point x="664" y="573"/>
      <point x="673" y="617"/>
      <point x="622" y="630" type="curve"/>
      <point x="622" y="530" type="line"/>
      <point x="673" y="530" type="line"/>
      <point x="673" y="626" type="line"/>
      <point x="628" y="659"/>
      <point x="543" y="700"/>
    </contour>
    <contour>
      <point x="308" y="790" type="line"/>
      <point x="147" y="-120" type="line"/>
      <point x="191" y="-120" type="line"/>
      <point x="352" y="790" type="line"/>
    </contour>
    <contour>
      <point x="496" y="790" type="line"/>
      <point x="333" y="-120" type="line"/>
      <point x="379" y="-120" type="line"/>
      <point x="540" y="790" type="line"/>
    </contour>
  </outline>
</glyph>
<glyph name="eight.den" format="2">
  <advance width="395"/>
  <outline>
    <contour>
      <point x="197" y="319" type="curve" smooth="yes"/>
      <point x="149" y="319"/>
      <point x="115" y="296"/>
      <point x="115" y="257" type="curve" smooth="yes"/>
      <point x="115" y="217"/>
      <point x="149" y="193"/>
      <point x="197" y="193" type="curve" smooth="yes"/>
      <point x="246" y="193"/>
      <point x="280" y="217"/>
      <point x="280" y="257" type="curve" smooth="yes"/>
      <point x="280" y="296"/>
      <point x="246" y="319"/>
    </contour>
    <contour>
      <point x="197" y="186" type="curve" smooth="yes"/>
      <point x="282" y="186"/>
      <point x="347" y="152"/>
      <point x="347" y="96" type="curve" smooth="yes"/>
      <point x="347" y="35"/>
      <point x="285" y="-6"/>
      <point x="197" y="-6" type="curve" smooth="yes"/>
      <point x="111" y="-6"/>
      <point x="49" y="35"/>
      <point x="49" y="96" type="curve" smooth="yes"/>
      <point x="49" y="152"/>
      <point x="113" y="186"/>
    </contour>
    <contour>
      <point x="197" y="168" type="curve" smooth="yes"/>
      <point x="140" y="168"/>
      <point x="99" y="143"/>
      <point x="99" y="96" type="curve" smooth="yes"/>
      <point x="99" y="50"/>
      <point x="142" y="22"/>
      <point x="197" y="22" type="curve" smooth="yes"/>
      <point x="253" y="22"/>
      <point x="297" y="50"/>
      <point x="297" y="96" type="curve" smooth="yes"/>
      <point x="297" y="143"/>
      <point x="256" y="168"/>
    </contour>
    <contour>
      <point x="197" y="178" type="curve" smooth="yes"/>
      <point x="123" y="178"/>
      <point x="67" y="210"/>
      <point x="67" y="262" type="curve" smooth="yes"/>
      <point x="67" y="310"/>
      <point x="123" y="346"/>
      <point x="197" y="346" type="curve" smooth="yes"/>
      <point x="273" y="346"/>
      <point x="328" y="310"/>
      <point x="328" y="262" type="curve" smooth="yes"/>
      <point x="328" y="210"/>
      <point x="273" y="178"/>
    </contour>
  </outline>
</glyph>
<glyph name="f_i" format="2">
  <advance width="649"/>
  <outline>
    <contour>
      <point x="24" y="518" type="line"/>
      <point x="24" y="503" type="line"/>
      <point x="457" y="503" type="line"/>
      <point x="457" y="518" type="line"/>
    </contour>
    <contour>
      <point x="373" y="743" type="curve" smooth="yes"/>
      <point x="418" y="743"/>
      <point x="464" y="731"/>
      <point x="495" y="708" type="curve"/>
      <point x="469" y="732" type="line"/>
      <point x="469" y="661" type="line"/>
      <point x="516" y="661" type="line"/>
      <point x="516" y="722" type="line"/>
      <point x="488" y="737"/>
      <point x="443" y="758"/>
      <point x="371" y="758" type="curve" smooth="yes"/>
      <point x="256" y="758"/>
      <point x="150" y="706"/>
      <point x="150" y="570" type="curve" smooth="yes"/>
      <point x="150" y="39" type="line" smooth="yes"/>
      <point x="150" y="18"/>
      <point x="111" y="13"/>
      <point x="44" y="13" type="curve" smooth="yes"/>
      <point x="29" y="13" type="line"/>
      <point x="29" y="0" type="line"/>
      <point x="319" y="0" type="line"/>
      <point x="319" y="13" type="line"/>
      <point x="301" y="13" type="line" smooth="yes"/>
      <point x="237" y="13"/>
      <point x="188" y="16"/>
      <point x="188" y="23" type="curve" smooth="yes"/>
      <point x="188" y="575" type="line" smooth="yes"/>
      <point x="188" y="707"/>
      <point x="273" y="743"/>
    </contour>
    <contour>
      <point x="525" y="518" type="line"/>
      <point x="390" y="518" type="line"/>
      <point x="390" y="503" type="line"/>
      <point x="411" y="503" type="line" smooth="yes"/>
      <point x="474" y="503"/>
      <point x="486" y="494"/>
      <point x="486" y="478" type="curve" smooth="yes"/>
      <point x="486" y="36" type="line" smooth="yes"/>
      <point x="486" y="17"/>
      <point x="446" y="13"/>
      <point x="389" y="13" type="curve" smooth="yes"/>
      <point x="387" y="13" type="line"/>
      <point x="387" y="0" type="line"/>
      <point x="624" y="0" type="line"/>
      <point x="624" y="13" type="line"/>
      <point x="622" y="13" type="line" smooth="yes"/>
      <point x="565" y="13"/>
      <point x="525" y="17"/>
      <point x="525" y="36" type="curve" smooth="yes"/>
    </contour>
  </outline>
</glyph>
<glyph name="one.lin" format="2">
  <advance width="699"/>
  <outline>
    <contour>
      <point x="412" y="63" type="curve" smooth="yes"/>
      <point x="412" y="710" type="line"/>
      <point x="389" y="710" type="line"/>
      <point x="345" y="658"/>
      <point x="257" y="636"/>
      <point x="150" y="634" type="curve"/>
      <point x="150" y="604" type="line"/>
      <point x="250" y="602"/>
      <point x="357" y="628"/>
      <point x="382" y="674" type="curve"/>
      <point x="390" y="687"/>
      <point x="394" y="695"/>
      <point x="375" y="673" type="curve"/>
      <point x="375" y="63" type="line" smooth="yes"/>
      <point x="375" y="34"/>
      <point x="324" y="27"/>
      <point x="243" y="27" type="curve" smooth="yes"/>
      <point x="160" y="27" type="line"/>
      <point x="160" y="0" type="line"/>
      <point x="617" y="0" type="line"/>
      <point x="617" y="27" type="line"/>
      <point x="556" y="27" type="line" smooth="yes"/>
      <point x="468" y="27"/>
      <point x="412" y="34"/>
    </contour>
  </outline>
</glyph>
<glyph name="ringhalfright" format="2">
  <advance width="622"/>
  <anchor x="312" y="566.0" name="_top"/>
  <outline>
    <contour>
      <point x="312" y="768" type="line"/>
      <point x="389" y="768"/>
      <point x="451" y="735"/>
      <point x="451" y="677" type="curve" smooth="yes"/>
      <point x="451" y="619"/>
      <point x="388" y="586"/>
      <point x="312" y="586" type="curve"/>
      <point x="312" y="612" type="line"/>
      <point x="349" y="612"/>
      <point x="379" y="634"/>
      <point x="379" y="677" type="curve" smooth="yes"/>
      <point x="379" y="720"/>
      <point x="349" y="742"/>
      <point x="312" y="742" type="curve"/>
    </contour>
  </outline>
</glyph>
<glyph name="six.den" format="2">
  <advance width="399"/>
  <outline>
    <contour>
      <point x="314" y="328" type="line"/>
      <point x="169" y="308"/>
      <point x="94" y="237"/>
      <point x="94" y="143" type="curve" smooth="yes"/>
      <point x="94" y="61"/>
      <point x="136" y="24"/>
      <point x="201" y="24" type="curve" smooth="yes"/>
      <point x="262" y="24"/>
      <point x="305" y="61"/>
      <point x="305" y="117" type="curve" smooth="yes"/>
      <point x="305" y="160"/>
      <point x="280" y="194"/>
      <point x="212" y="194" type="curve" smooth="yes"/>
      <point x="153" y="194"/>
      <point x="103" y="161"/>
      <point x="72" y="114" type="curve"/>
      <point x="62" y="142" type="line"/>
      <point x="83" y="180"/>
      <point x="143" y="225"/>
      <point x="217" y="225" type="curve" smooth="yes"/>
      <point x="305" y="225"/>
      <point x="354" y="182"/>
      <point x="354" y="117" type="curve" smooth="yes"/>
      <point x="354" y="47"/>
      <point x="288" y="-6"/>
      <point x="200" y="-6" type="curve" smooth="yes"/>
      <point x="108" y="-6"/>
      <point x="44" y="47"/>
      <point x="44" y="143" type="curve" smooth="yes"/>
      <point x="44" y="249"/>
      <point x="141" y="338"/>
      <point x="308" y="358" type="curve"/>
    </contour>
  </outline>
</glyph>
<glyph name="slash.uc" format="2">
  <advance width="526"/>
  <outline>
    <contour>
      <point x="514" y="745" type="line"/>
      <point x="22" y="-35" type="line"/>
      <point x="69" y="-35" type="line"/>
      <point x="560" y="745" type="line"/>
    </contour>
  </outline>
</glyph>
<glyph name="whitecircle" format="2">
  <advance width="740"/>
  <outline>
    <contour>
      <point x="370" y="80" type="curve" smooth="yes"/>
      <point x="530" y="80"/>
      <point x="658" y="177"/>
      <point x="658" y="304" type="curve" smooth="yes"/>
      <point x="658" y="431"/>
      <point x="530" y="528"/>
      <point x="370" y="528" type="curve" smooth="yes"/>
      <point x="210" y="528"/>
      <point x="82" y="431"/>
      <point x="82" y="304" type="curve" smooth="yes"/>
      <point x="82" y="177"/>
      <point x="210" y="80"/>
    </contour>
    <contour>
      <point x="370" y="118" type="curve" smooth="yes"/>
      <point x="233" y="118"/>
      <point x="134" y="193"/>
      <point x="134" y="304" type="curve" smooth="yes"/>
      <point x="134" y="415"/>
      <point x="233" y="490"/>
      <point x="370" y="490" type="curve" smooth="yes"/>
      <point x="507" y="490"/>
      <point x="605" y="415"/>
      <point x="605" y="304" type="curve" smooth="yes"/>
      <point x="605" y="193"/>
      <point x="506" y="118"/>
    </contour>
  </outline>
</glyph>
